# xmcd CD database file generated by OrangeCD 5.2
#
# Track frame offsets:
#	150
#	19240
#	36998
#	55528
#	73408
#	88940
#	103133
#	121075
#
# Disc length: 1846 seconds
#
# Revision: 0
# Processed by: cddbd v1.5.1PL0 Copyright (c) Steve Scherf et al.
# Submitted via: OrangeCD 5.2
#
DISCID=6d073408
DTITLE=Buddy Ace - Don't Hurt No More
DYEAR=1990
DGENRE=Blues
TTITLE0=Root Doctor
TTITLE1=I Kicked The Habit
TTITLE2=Love of Mine
TTITLE3=Don't Hurt No More
TTITLE4=Chokin' Kind
TTITLE5=Pouring Water on A Drowning Man
TTITLE6=Your Time to Cry
TTITLE7=She Ain't givin' Up No Love
EXTD=
EXTT0=
EXTT1=
EXTT2=
EXTT3=
EXTT4=
EXTT5=
EXTT6=
EXTT7=
PLAYORDER=
